<svg width="203" height="29" viewBox="0 0 203 29" fill="none" xmlns="http://www.w3.org/2000/svg">
<path d="M9 3C9 7 2.5 12 0 12C5 12 9 20 9 22.5C9 16.5 16 12 18 12C14.5 12 9 6 9 3Z" fill="url(#paint0_linear_84_88280)"/>
<path d="M19.1538 0C19.1538 1.84615 16.1538 4.15385 15 4.15385C17.3077 4.15385 19.1538 7.84615 19.1538 9C19.1538 6.23077 22.3846 4.15385 23.3077 4.15385C21.6923 4.15385 19.1538 1.38462 19.1538 0Z" fill="url(#paint1_linear_84_88280)"/>
<path d="M19.1538 16C19.1538 17.8462 16.1538 20.1538 15 20.1538C17.3077 20.1538 19.1538 23.8462 19.1538 25C19.1538 22.2308 22.3846 20.1538 23.3077 20.1538C21.6923 20.1538 19.1538 17.3846 19.1538 16Z" fill="#502FFF"/>
<ellipse cx="13.1225" cy="15.8159" rx="12.7842" ry="2.99758" transform="rotate(-15.257 13.1225 15.8159)" stroke="url(#paint2_linear_84_88280)" stroke-width="0.5"/>
<path d="M9 3C9 7 2.5 12 0 12C5 12 7 17.5 9 19.5C12 14.5 16 12 18 12C14.5 12 9 6 9 3Z" fill="url(#paint3_linear_84_88280)"/>
<path d="M40.964 3.864C43.172 3.864 44.78 4.344 45.788 5.304C46.812 6.248 47.324 7.552 47.324 9.216C47.324 9.968 47.212 10.688 46.988 11.376C46.764 12.048 46.388 12.656 45.86 13.2C45.348 13.728 44.668 14.144 43.82 14.448C42.972 14.752 41.924 14.904 40.676 14.904H39.116V21H35.492V3.864H40.964ZM40.772 6.84H39.116V11.928H40.316C41.004 11.928 41.596 11.84 42.092 11.664C42.588 11.488 42.972 11.208 43.244 10.824C43.516 10.44 43.652 9.944 43.652 9.336C43.652 8.488 43.42 7.864 42.956 7.464C42.492 7.048 41.764 6.84 40.772 6.84ZM56.9703 21H49.1703V18.936L51.2583 17.976V6.888L49.1703 5.928V3.864H56.9703V5.928L54.8823 6.888V17.976L56.9703 18.936V21ZM73.7385 21H69.5865L65.6025 14.52L61.6185 21H57.7305L63.4185 12.168L58.0905 3.864H62.0985L65.7945 10.032L69.4185 3.864H73.3305L67.9545 12.36L73.7385 21ZM85.7623 21H75.8983V3.864H85.7623V6.84H79.5223V10.608H85.3303V13.584H79.5223V18H85.7623V21ZM89.328 21V3.864H92.952V18H99.912V21H89.328ZM102.898 21V3.864H106.522V18H113.482V21H102.898ZM122.877 21H115.077V18.936L117.165 17.976V6.888L115.077 5.928V3.864H122.877V5.928L120.789 6.888V17.976L122.877 18.936V21ZM132.301 11.376H139.093V20.256C138.197 20.56 137.261 20.8 136.285 20.976C135.325 21.152 134.229 21.24 132.997 21.24C131.301 21.24 129.853 20.904 128.653 20.232C127.469 19.56 126.565 18.568 125.941 17.256C125.333 15.944 125.029 14.328 125.029 12.408C125.029 10.616 125.373 9.064 126.061 7.752C126.765 6.44 127.781 5.424 129.109 4.704C130.437 3.984 132.061 3.624 133.981 3.624C134.893 3.624 135.789 3.72 136.669 3.912C137.549 4.104 138.349 4.36 139.069 4.68L137.869 7.584C137.341 7.312 136.741 7.088 136.069 6.912C135.397 6.736 134.693 6.648 133.957 6.648C132.901 6.648 131.981 6.888 131.197 7.368C130.429 7.848 129.829 8.528 129.397 9.408C128.981 10.272 128.773 11.296 128.773 12.48C128.773 13.6 128.925 14.592 129.229 15.456C129.533 16.32 130.013 17 130.669 17.496C131.325 17.976 132.181 18.216 133.237 18.216C133.589 18.216 133.893 18.208 134.149 18.192C134.421 18.16 134.669 18.128 134.893 18.096C135.117 18.048 135.333 18.008 135.541 17.976V14.4H132.301V11.376ZM153.028 21H143.164V3.864H153.028V6.84H146.788V10.608H152.596V13.584H146.788V18H153.028V21ZM171.786 21H167.178L159.714 8.04H159.618C159.634 8.44 159.65 8.848 159.666 9.264C159.682 9.664 159.698 10.072 159.714 10.488C159.746 10.888 159.77 11.296 159.786 11.712C159.802 12.112 159.818 12.52 159.834 12.936V21H156.594V3.864H161.178L168.618 16.704H168.69C168.674 16.304 168.658 15.912 168.642 15.528C168.626 15.128 168.61 14.736 168.594 14.352C168.594 13.952 168.586 13.56 168.57 13.176C168.554 12.776 168.538 12.376 168.522 11.976V3.864H171.786V21ZM183.389 6.648C182.701 6.648 182.085 6.784 181.541 7.056C181.013 7.328 180.565 7.72 180.197 8.232C179.829 8.728 179.549 9.336 179.357 10.056C179.181 10.776 179.093 11.584 179.093 12.48C179.093 13.696 179.237 14.736 179.525 15.6C179.829 16.448 180.301 17.096 180.941 17.544C181.581 17.992 182.397 18.216 183.389 18.216C184.093 18.216 184.789 18.136 185.477 17.976C186.181 17.816 186.941 17.592 187.757 17.304V20.352C187.005 20.656 186.261 20.88 185.525 21.024C184.789 21.168 183.965 21.24 183.053 21.24C181.293 21.24 179.837 20.88 178.685 20.16C177.549 19.424 176.709 18.4 176.165 17.088C175.621 15.76 175.349 14.216 175.349 12.456C175.349 11.16 175.525 9.976 175.877 8.904C176.229 7.816 176.741 6.88 177.413 6.096C178.101 5.312 178.941 4.704 179.933 4.272C180.941 3.84 182.093 3.624 183.389 3.624C184.237 3.624 185.085 3.736 185.933 3.96C186.797 4.168 187.621 4.456 188.405 4.824L187.229 7.776C186.589 7.472 185.941 7.208 185.285 6.984C184.645 6.76 184.013 6.648 183.389 6.648ZM201.262 21H191.398V3.864H201.262V6.84H195.022V10.608H200.83V13.584H195.022V18H201.262V21Z" fill="url(#paint4_linear_84_88280)"/>
<defs>
<linearGradient id="paint0_linear_84_88280" x1="1.43501e-07" y1="1.5" x2="18" y2="21.5" gradientUnits="userSpaceOnUse">
<stop stop-color="#7067FF"/>
<stop offset="1" stop-color="#624FFF"/>
</linearGradient>
<linearGradient id="paint1_linear_84_88280" x1="16" y1="1.91677e-08" x2="23" y2="9" gradientUnits="userSpaceOnUse">
<stop stop-color="#6858FF"/>
<stop offset="1" stop-color="#624FFF"/>
</linearGradient>
<linearGradient id="paint2_linear_84_88280" x1="-0.594449" y1="8.63741" x2="24.9714" y2="21.3117" gradientUnits="userSpaceOnUse">
<stop stop-color="#438FB8"/>
<stop offset="1" stop-color="#1E4052"/>
</linearGradient>
<linearGradient id="paint3_linear_84_88280" x1="2.8182e-07" y1="1.5" x2="18" y2="21.5" gradientUnits="userSpaceOnUse">
<stop stop-color="#7067FF"/>
<stop offset="1" stop-color="#624FFF"/>
</linearGradient>
<linearGradient id="paint4_linear_84_88280" x1="33" y1="16" x2="203" y2="16" gradientUnits="userSpaceOnUse">
<stop stop-color="#7570FE"/>
<stop offset="0.478193" stop-color="#6C5FFF"/>
<stop offset="1" stop-color="#4F2DFF"/>
</linearGradient>
</defs>
</svg>
