<svg width="27" height="25" viewBox="0 0 27 25" fill="none" xmlns="http://www.w3.org/2000/svg">
<path d="M9 3C9 7 2.5 12 0 12C5 12 9 20 9 22.5C9 16.5 16 12 18 12C14.5 12 9 6 9 3Z" fill="url(#paint0_linear_84_88279)"/>
<path d="M19.1538 0C19.1538 1.84615 16.1538 4.15385 15 4.15385C17.3077 4.15385 19.1538 7.84615 19.1538 9C19.1538 6.23077 22.3846 4.15385 23.3077 4.15385C21.6923 4.15385 19.1538 1.38462 19.1538 0Z" fill="url(#paint1_linear_84_88279)"/>
<path d="M19.1538 16C19.1538 17.8462 16.1538 20.1538 15 20.1538C17.3077 20.1538 19.1538 23.8462 19.1538 25C19.1538 22.2308 22.3846 20.1538 23.3077 20.1538C21.6923 20.1538 19.1538 17.3846 19.1538 16Z" fill="#502FFF"/>
<ellipse cx="13.1225" cy="15.8159" rx="12.7842" ry="2.99758" transform="rotate(-15.257 13.1225 15.8159)" stroke="url(#paint2_linear_84_88279)" stroke-width="0.5"/>
<path d="M9 3C9 7 2.5 12 0 12C5 12 7 17.5 9 19.5C12 14.5 16 12 18 12C14.5 12 9 6 9 3Z" fill="url(#paint3_linear_84_88279)"/>
<defs>
<linearGradient id="paint0_linear_84_88279" x1="1.43501e-07" y1="1.5" x2="18" y2="21.5" gradientUnits="userSpaceOnUse">
<stop stop-color="#7067FF"/>
<stop offset="1" stop-color="#624FFF"/>
</linearGradient>
<linearGradient id="paint1_linear_84_88279" x1="16" y1="1.91677e-08" x2="23" y2="9" gradientUnits="userSpaceOnUse">
<stop stop-color="#6858FF"/>
<stop offset="1" stop-color="#624FFF"/>
</linearGradient>
<linearGradient id="paint2_linear_84_88279" x1="-0.594449" y1="8.63741" x2="24.9714" y2="21.3117" gradientUnits="userSpaceOnUse">
<stop stop-color="#438FB8"/>
<stop offset="1" stop-color="#1E4052"/>
</linearGradient>
<linearGradient id="paint3_linear_84_88279" x1="2.8182e-07" y1="1.5" x2="18" y2="21.5" gradientUnits="userSpaceOnUse">
<stop stop-color="#7067FF"/>
<stop offset="1" stop-color="#624FFF"/>
</linearGradient>
</defs>
</svg>
